# xmcd
#
# Track frame offsets:
#	150
#	16250
#	35198
#
# Disc length: 778 seconds
#
# Revision: 0
# Processed by: cddbd v1.5.2PL0 Copyright (c) Steve Scherf et al.
# Submitted via: audiograbber 1.83.01
#
DISCID=1e030803
DTITLE=Jenni Vartiainen - Nettiin [CDS)
DYEAR=2010
DGENRE=Dance
TTITLE0=Nettiin (Original)
TTITLE1=Nettiin (JS16 Remix)
TTITLE2=En Haluu Kuolla Tänä Yönä (JS16 Remix)
EXTD=TR.
EXTT0=
EXTT1=
EXTT2=
PLAYORDER=
